# xmcd
#
# Track frame offsets:
#	182
#	13505
#	28055
#	40395
#	55082
#	68360
#	81917
#	95667
#	110945
#	124067
#	135062
#	150252
#	163527
#	174395
#	189312
#	203057
#	215062
#	228317
#
# Disc length: 3209 seconds
#
# Revision: 2
# Processed by: cddbd v1.5.2PL0 Copyright (c) Steve Scherf et al.
# Submitted via: EZCDAudioConverter 5.0.0.1
#
DISCID=e60c8712
DTITLE=Stan Getz - Stan Getz Maestros del Jazz and Blues Nº 5
DYEAR=1900
DGENRE=blues
TTITLE0=Time on my hands
TTITLE1=It's autumn
TTITLE2=Stella by starlight
TTITLE3=Body and soul
TTITLE4=Love come back to me
TTITLE5=Autumn Leaves
TTITLE6=The way you look tonight
TTITLE7=These foolish things
TTITLE8=Hymn of the orient
TTITLE9=Fools rush in
TTITLE10=Stars fell on Alabama
TTITLE11=You Turned the tables on me
TTITLE12=Lullaby of birdland
TTITLE13=Thanks for the memory
TTITLE14=Wildwood
TTITLE15=Potter's luck
TTITLE16=Yvette
TTITLE17=Melody express
EXTD=
EXTT0=
EXTT1=
EXTT2=
EXTT3=
EXTT4=
EXTT5=
EXTT6=
EXTT7=
EXTT8=
EXTT9=
EXTT10=
EXTT11=
EXTT12=
EXTT13=
EXTT14=
EXTT15=
EXTT16=
EXTT17=
PLAYORDER=
